<svg xmlns="http://www.w3.org/2000/svg" xml:space="preserve" fill-rule="evenodd" stroke-linecap="square" clip-rule="evenodd" viewBox="0 0 29 29"><g transform="matrix(2.8346 0 0 2.8346 0 -813.5433)"><clipPath id="a"><path d="m-.651 286.13 6.564-.05 3.45 3.45.61 8.177-11.343-.317.719-11.26Z"/></clipPath><g clip-path="url(#a)"><path fill="#ffc6c6" fill-rule="nonzero" stroke="#000" stroke-width=".2" d="M1.6 287.1h6.8v9.8H1.6z"/></g><g transform="rotate(45)"><clipPath id="b"><path d="m201.864 202.786 4.607-4.678h4.878l6.213 5.351-8.244 7.796-7.454-8.469Z"/></clipPath><g clip-path="url(#b)"><path fill="#fff" stroke="#000" stroke-width=".3" d="M207.944 196.139h1.994v1.945h-1.994z"/></g></g><path fill="none" stroke="#000" stroke-width=".3" d="M2.181 290.181h5.638v4.638H2.181z"/><path fill="none" stroke="red" stroke-linecap="round" stroke-linejoin="round" stroke-miterlimit="1.5" stroke-width="1.99" d="m9.186 17.259 11.015-6.311" transform="matrix(.369 -.0106 -.0082 .3582 -.3076 287.604)"/><path fill="none" stroke="red" stroke-linecap="round" stroke-linejoin="round" stroke-miterlimit="1.5" stroke-width="1.99" d="m9.186 17.259 11.015-6.311" transform="matrix(.1937 .3144 -.3143 .172 6.5862 285.4555)"/><path fill="none" stroke="#000" stroke-linecap="butt" stroke-width=".2" d="M6.748 287.023v1.732h1.686"/></g></svg>