<svg fill="none" stroke-linecap="round" xmlns="http://www.w3.org/2000/svg" width="256" height="256"><path fill="rgba(0,0,0,0)" d="M0 0h256v256H0V0z"/><path stroke="#000" stroke-width="30" d="M21 235L235 21M108.834 211.465L21 235l23.535-87.834M21 235l55.685-55.685L21 235zM147.166 44.535L235 21l-23.535 87.834M235 21l-55.685 55.685L235 21zM21 21l214 214M44.535 108.834L21 21l87.834 23.535M21 21l55.685 55.685L21 21zm190.465 126.166L235 235l-87.834-23.535M235 235l-55.685-55.685L235 235z"/><path stroke="#FFF" stroke-width="20" d="M21 235L235 21M108.834 211.465L21 235l23.535-87.834M21 235l55.685-55.685L21 235zM147.166 44.535L235 21l-23.535 87.834M235 21l-55.685 55.685L235 21zM108.834 211.465L21 235l23.535-87.834M21 235l55.685-55.685L21 235zM147.166 44.535L235 21l-23.535 87.834M235 21l-55.685 55.685L235 21zM21 21l214 214M44.535 108.834L21 21l87.834 23.535M21 21l55.685 55.685L21 21zm190.465 126.166L235 235l-87.834-23.535M235 235l-55.685-55.685L235 235zM44.535 108.834L21 21l87.834 23.535M21 21l55.685 55.685L21 21zm190.465 126.166L235 235l-87.834-23.535M235 235l-55.685-55.685L235 235z"/></svg>