<?xml version="1.0" encoding="UTF-8"?>
<svg width="100" height="100" version="1.1" viewBox="0 0 26.5 26.5" xmlns="http://www.w3.org/2000/svg"><g fill="none" stroke="#4d4d4d" stroke-linecap="round"><path transform="matrix(1.11 0 0 1.11 6.19 .918)" d="m-5.12 4.34c6.26-6.26 16.7-6.26 23-1e-7" stroke-width=".957"/><path transform="matrix(.415 0 0 .307 10.7 12.5)" d="m-5.12 4.34c6.26-6.26 16.7-6.26 23-1e-7" stroke-width="2.97"/><path transform="matrix(.877 0 0 .821 7.68 4.77)" d="m-5.12 4.34c6.26-6.26 16.7-6.26 23-1e-7" stroke-width="1.25"/><path transform="matrix(.645 0 0 .573 9.15 8.64)" d="m-5.12 4.34c6.26-6.26 16.7-6.26 23-1e-7" stroke-width="1.74"/></g><circle cx="13.2" cy="22.5" r="3.97" fill="#4d4d4d" stroke-width="0"/><rect transform="rotate(135)" x="-18" y="-18.7" width="35.9" height="8.99e-15" fill="none" stroke="#000" stroke-linecap="round" stroke-linejoin="round" stroke-width="1.06"/></svg>
