<svg xmlns="http://www.w3.org/2000/svg" stroke="#000" stroke-linecap="round" stroke-linejoin="round" stroke-width="4" viewBox="0 0 100 100"><defs><clipPath id="a"><path d="M50 5 5 25v50l45 20 45-20V25z" clip-rule="evenodd"/></clipPath></defs><g clip-path="url(#a)"><path fill="none" stroke-width="8" d="M5 25 50 5l45 20v50L50 95 5 75z"/></g><path fill="none" d="m28 61 22-11"/><defs><clipPath id="b"><path d="M50 25 25 36v28l25 11 25-11V36z" clip-rule="evenodd"/></clipPath></defs><g clip-path="url(#b)"><path fill="none" stroke-width="8" d="m25 36 25-11 25 11v28L50 75 25 64z"/></g><path fill="none" d="m8 27 18 10m66-10-18 9M50 92V74m22-13L50 50m0-1V29"/></svg>