<svg xmlns="http://www.w3.org/2000/svg" width="100" height="100" stroke-width="4" stroke-linecap="round" stroke-linejoin="round" stroke="#000"><defs><clipPath id="prefix__a"><path d="M50 5L5 25v50l45 20 45-20V25L50 5z" clip-rule="evenodd"/></clipPath></defs><g clip-path="url(#prefix__a)"><path fill="none" stroke-width="8" d="M5 25L50 5l45 20v50L50 95 5 75V25z"/></g><path fill="none" d="M28 61l22-11"/><defs><clipPath id="prefix__b"><path d="M50 25L25 36.111V63.89L50 75l25-11.111V36.11L50 25z" clip-rule="evenodd"/></clipPath></defs><g clip-path="url(#prefix__b)"><path fill="none" stroke-width="8" d="M25 36.111L50 25l25 11.111V63.89L50 75 25 63.889V36.11z"/></g><path fill="none" d="M8 27l18 10M92 27l-18 9M50 92V74M72 61L50 50M50 49V29"/></svg>