<?xml version="1.0" encoding="utf-8" ?>
<svg xmlns="http://www.w3.org/2000/svg" xmlns:xlink="http://www.w3.org/1999/xlink" width="100" height="100" stroke-width="4" stroke-linecap="round" stroke-linejoin="round" stroke="#000">
	<defs>
		<clipPath id="clip_0">
			<path d="M50 5L5 25L5 75L50 95L95 75L95 25L50 5Z" clip-rule="evenodd"/>
		</clipPath>
	</defs>
	<g clip-path="url(#clip_0)">
		<path fill="none" stroke-width="8" transform="translate(5 5)" d="M0 20L45 0L90 20L90 70L45 90L0 70L0 20Z"/>
	</g>
	<path fill="none" transform="translate(28 50)" d="M0 11L22 0"/>
	<defs>
		<clipPath id="clip_1">
			<path d="M50 25L25 36.1111L25 63.8889L50 75L75 63.8889L75 36.1111L50 25Z" clip-rule="evenodd"/>
		</clipPath>
	</defs>
	<g clip-path="url(#clip_1)">
		<path fill="none" stroke="rgb(0,0,0)" stroke-width="8" transform="translate(25 25)" d="M0 11.1111L25 0L50 11.1111L50 38.8889L25 50L0 38.8889L0 11.1111Z"/>
	</g>
	<path fill="none" transform="translate(8 27)" d="M0 0L18 10"/>
	<path fill="none" transform="translate(74 27)" d="M18 0L0 9"/>
	<path fill="none" transform="translate(50 74)" d="M0 18L0 0"/>
	<path fill="none" transform="translate(50 50)" d="M22 11L0 0"/>
	<path fill="none" transform="translate(50 29)" d="M0 20L0 0"/>
</svg>
