<svg xmlns="http://www.w3.org/2000/svg" viewBox="0 0 92 92"><defs><filter id="a" width="1.03" height="1.03" x="-.016" y="-.016"><feGaussianBlur stdDeviation=".59"/></filter></defs><path fill="#fff" d="M2 2h88v88H2z" filter="url(#a)" style="mix-blend-mode:normal"/><path fill="#ff0" d="M0 0h20v20H0z"/><path fill="red" d="M24 0h20v20H24z"/><path fill="#00f" d="M48 0h20v20H48z"/><path fill="olive" d="M72 0h20v20H72z"/><path fill="#0ff" d="M0 24h20v20H0z"/><path fill="#9a9" d="M24 24h20v20H24z"/><path fill="pink" d="M48 24h20v20H48z"/><path fill="#95f" d="M72 24h20v20H72z"/><path fill="#d85" d="M0 48h20v20H0z"/><path fill="#6a0" d="M24 48h20v20H24z"/><path fill="#08a" d="M48 48h20v20H48z"/><path fill="#d85" d="M72 48h20v20H72z"/><path fill="#bf8" d="M0 72h20v20H0z"/><path fill="red" d="M24 72h20v20H24z"/><path fill="#433" d="M48 72h20v20H48z"/><path fill="#967" d="M72 72h20v20H72z"/></svg>