<svg width="87.6mm" height="87.6mm" viewBox="0 0 87.6 87.6" xmlns="http://www.w3.org/2000/svg"><defs/><defs><radialGradient id="a" cx="39.9" cy="44" r="39.9" gradientTransform="matrix(1.03 0 0 1.1 0 -4.52)" gradientUnits="userSpaceOnUse" spreadMethod="reflect"><stop stop-color="#b6b600" offset=".621"/><stop stop-color="#f2f200" offset=".944"/></radialGradient></defs><defs><clipPath id="b"><path d="M23.1 20.8s-6.84 6.28-5.62 10.2c1.22 3.9 8.29 6.36 8.29 6.36s8.23 1.38 9.87-4.56c1.64-5.94 1.62-4.65.73-10.9-.886-6.26 4.7-12.2-3.58-7.32" fill="#803300"/></clipPath></defs><path d="M45.2 0A45.2 43.8 0 000 43.8a45.2 43.8 0 0045.2 43.8A45.2 43.8 0 0082 69.1L36.3 43.6l45.5-25.5A45.2 43.8 0 0045.2 0z" fill="url(#a)"/><ellipse cx="53.4" cy="18.6" rx="4.33" ry="6.33" fill="#fff" stroke="#000" stroke-linejoin="bevel" stroke-width="3.33"/><path fill="#59f" d="M21.1 69.6h8v8h-8z"/><path fill="#b3ff80" d="M12.1 69.6h8v8h-8z"/><path fill="#ff8080" d="M12.1 60.6h8v8h-8z"/><path fill="#fff" d="M52.9 39.5h8v8h-8zM61.9 39.5h8v8h-8z"/><g transform="matrix(-.761 -.0541 .0517 -.864 85.4 84.5)" stroke-width="0"><ellipse transform="rotate(17.4)" cx="34.3" cy="54.8" rx="7.41" ry="36.5" fill="#80512a"/><path d="M23.1 20.8s-6.84 6.28-5.62 10.2c.447 1.43 1.48 2.65 2.61 3.62 2.7-.355 7.06.86 9.13 2.64 2.67-.35 5.58-1.45 6.42-4.47 1.64-5.94 1.62-4.65.73-10.9-.886-6.26 4.7-12.2-3.58-7.32" fill="#5f2500"/><path d="M29.4 13.1c.513 5.61-3.08 7.51.302 5.67 3.38-1.84 5.36-3.82 4.58-1.04s-5.17 5.32.867 3.11c6.04-2.2 3.09-7.77 3.06-8.71" clip-path="url(#b)" fill="#8a62fe"/></g></svg>