<svg width="10mm" height="10mm" viewBox="0 0 10 10" xmlns="http://www.w3.org/2000/svg"><defs><clipPath id="a"><path d="M-7.033-6.759h16.29v16.29h-16.29zm9.721 8.147A1.574 1.574 0 001.114-.186 1.574 1.574 0 00-.46 1.388a1.574 1.574 0 001.574 1.574 1.574 1.574 0 001.574-1.574z" stroke-width=".988"/></clipPath></defs><path transform="translate(3.131 2.671) scale(1.678)" d="M3.057 3.707c-.128-.068-.263-.185-.4-.257l-.53.307c-.006.154.028.329.023.474l-.513.137c-.077-.123-.135-.292-.217-.422H.807c-.082.131-.14.3-.217.422l-.513-.137c-.005-.146.03-.32.023-.475l-.53-.306c-.137.072-.272.19-.4.257l-.375-.375c.068-.129.185-.263.257-.4l-.307-.53c-.154-.006-.329.028-.474.023l-.137-.513c.123-.077.292-.135.422-.217v-.613c-.131-.083-.3-.14-.422-.217l.137-.513c.146-.005.32.03.475.023l.306-.53c-.072-.138-.19-.272-.257-.4L-.83-.93c.129.068.263.185.4.257L.1-.98c.006-.155-.028-.33-.023-.474l.513-.137c.077.123.135.291.217.422h.613c.083-.131.14-.3.217-.423l.513.138c.005.145-.029.32-.023.474l.53.306c.138-.072.272-.188.4-.257l.375.376c-.068.128-.185.263-.257.4l.307.53c.155.006.33-.028.474-.023l.137.513c-.123.077-.291.135-.422.217v.613c.131.082.3.14.423.217l-.138.513c-.145.005-.32-.03-.474-.023l-.306.53c.072.138.188.272.257.4z" clip-path="url(#a)" fill="gray"/><circle cx="5" cy="5" r="2.25"/></svg>