<svg xmlns="http://www.w3.org/2000/svg" xml:space="preserve" viewBox="0 0 2100 1080"><path fill="#a31" d="M-55-93.2h770.8v1232.7H-55.1z"/><path fill="#c30" d="M-55-93.2h385.4v1232.7H-55.1z"/><path fill="#570" d="M571.5-94.4h503v608.1h-503z"/><path fill="#790" d="M571.5-94.4h251.6v608.1H571.5z"/><path fill="#a31" d="M-48.6-92.72h193.77v812.98H-48.59z"/><path fill="#06a" d="M1530.4-90.9h389.4v518.6h-389.4z"/><path fill="#08b" d="M1530.4-90.9H1725v518.6h-194.7z"/><path fill="#a70" d="M1722.4-89.2h370.7V305h-370.7z"/><path fill="#c90" d="M1722.4-89.2h185.4V305h-185.4zm329.2 1.6h177.36v1227.4h-177.37z"/><path fill="#06a" d="M1140.8-91.8h400.3v555.1h-400.3z"/><path fill="#08b" d="M1140.8-91.8H1341v555.1h-200.2z"/><path fill="#790" d="M1026.57-94.93h191.84v377.88h-191.84z"/><path fill="#a31" d="M352.5 52h341.3v682.5H352.5z"/><path fill="#c30" d="M352.5 52h170.7v682.5H352.5z"/><path fill="#f51" d="M352.5 52 523.2-50.6 693.8 52 523.2 154.3z"/><path fill="#a31" d="M16 128h298v596.4H16z"/><path fill="#c30" d="M16 128h149v596.4H16z"/><path fill="#f51" d="m16 128 149-89.4L314.1 128l-149 89.5z"/><path fill="#a31" d="M47.9 370.7h385.8v771.6H47.9z"/><path fill="#c30" d="M47.9 370.7h192.9v771.6h-193z"/><path fill="#f51" d="M47.9 370.7 240.8 255l193 115.8-193 115.8z"/><path fill="#a31" d="M-20.55 640.05H95.07v500H-20.55z"/><path fill="#c30" d="M-20.55 640.05h57.81v500h-57.81z"/><path fill="#f51" d="m-20.58 640 57.83-34.69 57.82 34.7-57.82 34.69z"/><path fill="#570" d="M1003.6 30.5h117v233.8h-117z"/><path fill="#790" d="M1003.6 30.5h58.5v233.8h-58.5z"/><path fill="#06a" d="M1082 87.6h162.7v1000H1082z"/><path fill="#08b" d="M1082 87.6h81.4v1000H1082z"/><path fill="#0af" d="m1082 87.6 81.4-48.8 81.3 48.8-81.3 48.8z"/><path fill="#8b0" d="m1003.6 30.5 58.5-35 58.4 35-58.4 35z"/><path fill="#570" d="M913.4 246.5h182.9V612H913.4z"/><path fill="#790" d="M913.4 246.5h91.5V612h-91.5z"/><path fill="#8b0" d="m913.4 246.5 91.5-54.9 91.4 54.9-91.4 54.8z"/><path fill="#570" d="M589.8 186.8h383.5V954H589.8z"/><path fill="#790" d="M589.8 186.8h191.8V954H589.8z"/><path fill="#8b0" d="m589.8 186.8 191.8-115 191.8 115-191.8 115z"/><path fill="#570" d="M447.7 354.7h250v785h-250z"/><path fill="#790" d="M447.7 354.7h125v785h-125z"/><path fill="#8b0" d="m447.7 354.7 125-75 125 75-125 75z"/><path fill="#570" d="M908.2 538.3h239.4v601.4H908.2z"/><path fill="#790" d="M908.2 538.3h119.7v601.4H908.2z"/><path fill="#8b0" d="m908.1 538.3 119.8-71.8 119.7 71.8-119.7 71.8z"/><path fill="#570" d="M668.3 890.9h304v250h-304z"/><path fill="#790" d="M668.3 890.9h152v250h-152z"/><path fill="#8b0" d="m668.3 890.9 152-91.3 152 91.3-152 91.2z"/><path fill="#a31" d="M318.1 697.5h216.2v442.7H318z"/><path fill="#c30" d="M318.1 697.5h108.1v442.7h-108z"/><path fill="#f51" d="m318.1 697.4 108.1-64.8 108.1 64.8-108.1 64.9z"/><path fill="#a70" d="M1665.5 64.1h175v350h-175z"/><path fill="#c90" d="M1665.5 64.1h87.5v350h-87.5z"/><path fill="#fb0" d="m1665.5 64 87.5-52.4 87.5 52.5-87.5 52.5z"/><path fill="#a70" d="M1474.5 228.4h342.2V913h-342.2z"/><path fill="#c90" d="M1474.5 228.4h171V913h-171z"/><path fill="#fb0" d="m1474.4 228.4 171.2-102.7 171.1 102.7-171.1 102.7z"/><path fill="#06a" d="M1178.7 243H1570v900.2h-391.3z"/><path fill="#08b" d="M1178.7 243h195.7v900.2h-195.7z"/><path fill="#0af" d="m1178.7 243 195.7-117.3L1570 243l-195.6 117.4z"/><path fill="#06a" d="M1117.2 590.3h240.2v558.9h-240.2z"/><path fill="#08b" d="M1117.2 590.3h120v558.9h-120z"/><path fill="#0af" d="m1117.2 590.3 120-72 120.2 72-120.1 72z"/><path fill="#a70" d="M1768.1 157.9h387v980h-387z"/><path fill="#c90" d="M1768.1 157.9h193.5v980H1768z"/><path fill="#fb0" d="m1768.1 157.9 193.5-116.1 193.5 116L1961.6 274z"/><path fill="#c90" d="M1990.3 491.2h119.1v644.5h-119z"/><path fill="#fb0" d="m1990.3 491.2 119.1-71.5 119 71.5-119 71.4z"/><path fill="#06a" d="M1483.6 464h237v678.5h-237z"/><path fill="#08b" d="M1483.6 464H1602v678.5h-118.5z"/><path fill="#0af" d="m1483.6 464 118.5-71.2 118.6 71.1-118.6 71.2z"/><path fill="#06a" d="M1390.8 746.5h169.5v395h-169.5z"/><path fill="#08b" d="M1390.8 746.5h84.8v395h-84.8z"/><path fill="#0af" d="m1390.8 746.5 84.8-50.9 84.7 50.9-84.7 50.8z"/><path fill="#a70" d="M1683 707.2h250v430.6h-250z"/><path fill="#c90" d="M1683 707.2h125v430.6h-125z"/><path fill="#fb0" d="m1683 707.2 125-75 125 75-125 75z"/></svg>
