<svg width="64mm" height="64mm" viewBox="0 0 64 64" xmlns="http://www.w3.org/2000/svg"><defs/><g stroke-width="0"><circle cx="16" cy="16" r="16" fill="#fc0"/><circle cx="16" cy="48" r="16" fill="#0f0"/><path d="M48 0a16 16 0 00-16 16 16 16 0 0016 16 16 16 0 0016-16A16 16 0 0048 0zm0 3.74a12.3 12.3 0 0112.3 12.3A12.3 12.3 0 0148 28.34a12.3 12.3 0 01-12.3-12.3A12.3 12.3 0 0148 3.74z" fill="#0f0"/><path d="M48 32a16 16 0 00-16 16 16 16 0 0016 16 16 16 0 0016-16 16 16 0 00-16-16zm0 3.74a12.3 12.3 0 0112.3 12.3A12.3 12.3 0 0148 60.34a12.3 12.3 0 01-12.3-12.3A12.3 12.3 0 0148 35.74z" fill="#fc0"/></g></svg>