<svg xmlns="http://www.w3.org/2000/svg" viewBox="0 0 64 64"><g stroke-width="0"><circle cx="16" cy="16" r="16" fill="#fc0"/><circle cx="16" cy="48" r="16" fill="#0f0"/><path fill="#0f0" d="M48 0a16 16 0 0 0-16 16 16 16 0 0 0 16 16 16 16 0 0 0 16-16A16 16 0 0 0 48 0m0 4a12 12 0 0 1 12 12 12 12 0 0 1-12 12 12 12 0 0 1-12-12A12 12 0 0 1 48 4"/><path fill="#fc0" d="M48 32a16 16 0 0 0-16 16 16 16 0 0 0 16 16 16 16 0 0 0 16-16 16 16 0 0 0-16-16m0 4a12 12 0 0 1 12 12 12 12 0 0 1-12 12 12 12 0 0 1-12-12 12 12 0 0 1 12-12"/></g></svg>