<svg width="87.6mm" height="87.6mm" viewBox="0 0 87.6 87.6" xmlns="http://www.w3.org/2000/svg"><defs/><defs><linearGradient id="b" x1="11.337" x2="38.083" y1="30.733" y2="30.733" gradientUnits="userSpaceOnUse"><stop stop-color="#333" offset="0"/><stop stop-color="#333" stop-opacity="0" offset="1"/></linearGradient><linearGradient id="c" x1="25.411" x2="53.757" y1="19.946" y2="19.946" gradientUnits="userSpaceOnUse"><stop stop-color="#333" offset="0"/><stop stop-color="#333" stop-opacity="0" offset="1"/></linearGradient><linearGradient id="d" x1="55.845" x2="71.452" y1="24.658" y2="24.658" gradientUnits="userSpaceOnUse"><stop stop-color="#333" offset="0"/><stop stop-color="#333" stop-opacity="0" offset="1"/></linearGradient><linearGradient id="a" x1="15.072" x2="88.056" y1="18.521" y2="70.896" gradientUnits="userSpaceOnUse"><stop stop-color="#c1c1c1" offset="0"/><stop stop-color="#686868" offset="1"/></linearGradient><radialGradient id="e" cx="65.884" cy="51.557" r="9.312" gradientTransform="matrix(1 0 0 .91903 0 4.175)" gradientUnits="userSpaceOnUse"><stop stop-color="#333" offset="0"/><stop stop-color="#333" stop-opacity="0" offset="1"/></radialGradient><clipPath id="f"><path d="M23.146 20.816s-6.843 6.28-5.625 10.178c1.219 3.898 8.286 6.356 8.286 6.356s8.233 1.38 9.874-4.564c1.64-5.943 1.616-4.651.73-10.908-.886-6.256 4.704-12.22-3.585-7.322" fill="#803300"/></clipPath></defs><path d="M48.241 12.41c-24.163 0-42.216 15.704-42.216 34.964 0 8.384 2.254 16.397 9.14 22.735 1.795 2.05 18.361-13.119 21.402-9.978 2.605 2.702-8.572 19.635-4.14 19.577 5.036 1.59 12.269 1.359 17.685 1.388 24.164 0 41.882-14.551 41.882-33.812 0-19.26-19.59-34.874-43.752-34.874zm2.09 26.808c4.938 0 7.677 3.498 7.677 7.59s-2.739 7.228-7.677 7.228-8.942-3.317-8.942-7.409c0-4.091 4.003-7.409 8.942-7.409z" fill="url(#a)" stroke="#333" stroke-linejoin="bevel" stroke-opacity=".435" stroke-width=".199" transform="matrix(.99998 0 0 1.0104 -5.925 5.562)"/><path transform="matrix(.62478 0 0 .92362 .546 15.987)" d="M37.791 22.295c2.056 4.21-16.398 18.447-22.03 18.946-5.632.499-5.689-18.873-.365-19.307 5.324-.433 20.338-3.848 22.394.361z" fill="red" stroke="url(#b)" stroke-width=".263"/><path transform="matrix(.57299 0 0 .57896 15.733 17.763)" d="M44.016 33.55c-1.863.079-8.566 1.25-12.098-2.374-.65-.668-8.049-2.862-6.216-6.423 1.603-3.116 1.394-12.004 5.945-14.825.881-.546 6.439-5.345 11.967-3.339.848.308 9.41-.96 8.548 3.06-.216 1.007-.325 2.883.398 6.364.288 1.39.594 2.485.899 3.35 1.727 4.912-4.404 13.974-9.443 14.188z" fill="green" stroke="url(#c)" stroke-width=".346"/><path transform="matrix(.99998 0 0 1.0104 -.867 10.49)" d="M71.05 28.049c-1.207 1.41-1.67.299-3.75.717s-1.649 3.99-3.779 4.12c-2.13.13-2.323-3.432-3.924-4.379-1.6-.947-2.788 1.46-3.325-.519-.537-1.978-.518-1.4-.219-3.481.3-2.08.131-4.395 1.179-5.993 1.047-1.598 2.257 1.415 3.882.227 1.625-1.189 1.584-2.518 3.738-2.29s-.333 1.532 1.454 2.765c1.786 1.234 2.207 1.056 3.322 2.816 1.116 1.761 1.463.665 1.08 2.797s1.55 1.81.342 3.22z" fill="navy" stroke="url(#d)" stroke-width=".199"/><path transform="matrix(.99998 0 0 1.0104 -16.402 20.644)" d="M74.617 53.938c2.028 4.35-3.306.83-6.607 3.15-4.097 2.88-3.064 3.29-8.793 2.608-4.616-.55-1.583-2.006-.935-6.603.803-5.706-1.234-6.594 3.423-9.412 3.752-2.27.388 3.11 4.212 4.796 4.745 2.091 6.183.062 8.7 5.461z" fill="#ff0" stroke="url(#e)" stroke-width=".199"/><g transform="matrix(.75405 -.10165 .12541 .85596 56.24 -7.167)" stroke-width="0"><ellipse transform="rotate(17.425)" cx="34.345" cy="54.825" rx="7.409" ry="36.535" fill="#80512a"/><path d="M23.146 20.816s-6.843 6.28-5.625 10.178c.447 1.43 1.48 2.649 2.61 3.62 2.704-.355 7.062.86 9.132 2.64 2.669-.35 5.584-1.45 6.418-4.468 1.64-5.943 1.616-4.651.73-10.908-.886-6.255 4.704-12.22-3.585-7.322" fill="#5f2500"/><path d="M29.441 13.093c.513 5.613-3.078 7.514.302 5.673 3.38-1.84 5.365-3.821 4.58-1.045s-5.169 5.315.867 3.112c6.035-2.203 3.093-7.77 3.063-8.706" clip-path="url(#f)" fill="#8a62fe"/></g></svg>