<?xml version="1.0" encoding="utf-8" ?>
<svg fill="none" stroke-linecap="round" xmlns="http://www.w3.org/2000/svg" xmlns:xlink="http://www.w3.org/1999/xlink" width="256" height="256">
	<path fill="rgba(0,0,0,0)" stroke="none" d="M0 0L256 0L256 256L0 256L0 0Z"/>
	<path stroke="rgb(0,0,0)" stroke-width="30" transform="translate(21 21)" d="M7.32386e-06 214L214 7.32386e-06M87.8342 190.465L1.00486e-14 214L23.5351 126.166M1.00486e-14 214L55.6847 158.315L1.00486e-14 214ZM126.166 23.5351L214 -1.00486e-14L190.465 87.8342M214 -1.00486e-14L158.315 55.6847L214 -1.00486e-14Z"/>
	<path stroke="rgb(0,0,0)" stroke-width="30" transform="translate(235 21) rotate(90)" d="M7.32386e-06 214L214 7.32386e-06M87.8342 190.465L1.00486e-14 214L23.5351 126.166M1.00486e-14 214L55.6847 158.315L1.00486e-14 214ZM126.166 23.5351L214 -1.00486e-14L190.465 87.8342M214 -1.00486e-14L158.315 55.6847L214 -1.00486e-14Z"/>
	<path stroke="rgb(255,255,255)" stroke-width="20" transform="translate(21 21)" d="M7.32386e-06 214L214 7.32386e-06M87.8342 190.465L1.00486e-14 214L23.5351 126.166M1.00486e-14 214L55.6847 158.315L1.00486e-14 214ZM126.166 23.5351L214 -1.00486e-14L190.465 87.8342M214 -1.00486e-14L158.315 55.6847L214 -1.00486e-14ZM87.8342 190.465L1.00486e-14 214L23.5351 126.166M1.00486e-14 214L55.6847 158.315L1.00486e-14 214ZM126.166 23.5351L214 -1.00486e-14L190.465 87.8342M214 -1.00486e-14L158.315 55.6847L214 -1.00486e-14Z"/>
	<path stroke="rgb(255,255,255)" stroke-width="20" transform="translate(235 21) rotate(90)" d="M7.32386e-06 214L214 7.32386e-06M87.8342 190.465L1.00486e-14 214L23.5351 126.166M1.00486e-14 214L55.6847 158.315L1.00486e-14 214ZM126.166 23.5351L214 -1.00486e-14L190.465 87.8342M214 -1.00486e-14L158.315 55.6847L214 -1.00486e-14ZM87.8342 190.465L1.00486e-14 214L23.5351 126.166M1.00486e-14 214L55.6847 158.315L1.00486e-14 214ZM126.166 23.5351L214 -1.00486e-14L190.465 87.8342M214 -1.00486e-14L158.315 55.6847L214 -1.00486e-14Z"/>
</svg>
