<svg xmlns="http://www.w3.org/2000/svg" xmlns:xlink="http://www.w3.org/1999/xlink" width="10mm" height="10mm" viewBox="0 0 10 10"><defs><clipPath clipPathUnits="userSpaceOnUse" id="prefix__a"><ellipse ry="2" rx="2" cy="294" cx="7.5" fill="#002fff" fill-rule="evenodd" stroke="#fff" stroke-width="0"/></clipPath><clipPath clipPathUnits="userSpaceOnUse" id="prefix__b"><ellipse ry="2" rx="2" cy="294" cx="7.5" fill="#002fff" fill-rule="evenodd" stroke="#fff" stroke-width="0"/></clipPath><clipPath clipPathUnits="userSpaceOnUse" id="prefix__c"><ellipse ry="2" rx="2" cy="294" cx="7.5" fill="#002fff" fill-rule="evenodd" stroke="#fff" stroke-width="0"/></clipPath></defs><g transform="matrix(2.5 0 0 2.5 -5.867 -731.238)"><g id="prefix__d" stroke-width="0"><ellipse ry="2" rx="2" cy="294.496" cx="4.347" fill="#002fff" fill-rule="evenodd" stroke="#fff"/><path clip-path="url(#prefix__a)" d="M6.894 291.935l.035 1.176-.291.257v.477l-.463-.459-.222.533.41.661.72.037.701.826-.77.588-.188-.514-.668-.404-.256-.661.017-.735-.462-.074-.462-1.763z" transform="translate(-3.153 .496)" fill="#0f0" stroke="#000" stroke-linecap="round" stroke-linejoin="round"/><path clip-path="url(#prefix__b)" d="M8.587 292.358c-.184-.016-.347.148-.531.154-.09.003-.208-.131-.26-.06-.113.156.144.445.295.497.151.05.233-.104.354-.142.236-.074.693.08.72-.166.026-.213-.364-.264-.578-.283z" transform="translate(-3.153 .496)" fill="#0f0" stroke="#000"/><path clip-path="url(#prefix__c)" d="M9.615 294.012c-.265-.31-.872-.361-1.217-.142-.314.2-.544.74-.352 1.059.265.44 1.522.252 1.522.252s.3-.873.047-1.17z" transform="translate(-3.153 .496)" fill="#0f0" stroke="#000"/></g></g><use height="100%" width="100%" xlink:href="#prefix__d" transform="matrix(2.5 0 0 2.5 -5.867 -731.238)"/></svg>