<svg xmlns="http://www.w3.org/2000/svg" viewBox="0 0 48 48" width="48" height="48"><path d="M23.387 22.336L26.828 10.371C23.801 8.313 20.441 6.656 13.453 9.574L10.012 21.59C12.785 20.438 14.98 19.906 16.816 19.926 19.605 19.941 21.563 21.102 23.387 22.336Z" fill="#f00"/><path d="M22.809 24.512L19.32 36.59C16.289 34.535 12.992 32.844 6 35.758L9.41 23.813 9.449 23.793C16.414 20.906 19.785 22.445 22.809 24.512Z" fill="#0b0"/><path d="M24.633 25.68L21.188 37.621C24.215 39.691 27.57 41.34 34.551 38.43L37.875 26.785C30.762 29.238 27.66 27.73 24.633 25.68Z" fill="#00f"/></svg>