<svg xmlns="http://www.w3.org/2000/svg" width="10mm" height="10mm" viewBox="0 0 10 10"><defs><clipPath clipPathUnits="userSpaceOnUse" id="prefix__c"><ellipse ry="2" rx="2" cy="294" cx="7.5" fill="#002fff" fill-rule="evenodd" stroke="#fff" stroke-width="0"/></clipPath><clipPath clipPathUnits="userSpaceOnUse" id="prefix__b"><ellipse ry="2" rx="2" cy="294" cx="7.5" fill="#002fff" fill-rule="evenodd" stroke="#fff" stroke-width="0"/></clipPath><clipPath clipPathUnits="userSpaceOnUse" id="prefix__a"><ellipse ry="2" rx="2" cy="294" cx="7.5" fill="#002fff" fill-rule="evenodd" stroke="#fff" stroke-width="0"/></clipPath></defs><g transform="translate(0 -287)"><path fill="#a80" d="M1 289h5v2H1z"/><path fill="#d4aa00" d="M1 290.471h8v5H1z"/><path fill="#d4aa00" fill-rule="evenodd" d="M5 289.5h4v1H5z"/><ellipse cx="7.5" cy="294" rx="2" ry="2" fill="#002fff" fill-rule="evenodd"/><path d="M6.894 291.935l.035 1.176-.291.257v.477l-.463-.459-.222.533.41.661.72.037.701.826-.77.588-.188-.514-.668-.404-.256-.661.017-.735-.462-.074-.462-1.763z" clip-path="url(#prefix__a)" fill="#0f0"/><path d="M8.587 292.358c-.184-.016-.347.148-.531.154-.09.003-.208-.131-.26-.06-.113.156.144.445.295.497.151.05.233-.104.354-.142.236-.074.693.08.72-.166.026-.213-.364-.264-.578-.283z" clip-path="url(#prefix__b)" fill="#0f0"/><path d="M9.615 294.012c-.265-.31-.872-.361-1.217-.142-.314.2-.544.74-.352 1.059.265.44 1.522.252 1.522.252s.3-.873.047-1.17z" clip-path="url(#prefix__c)" fill="#0f0"/></g></svg>