<svg xmlns="http://www.w3.org/2000/svg" width="10mm" height="10mm" viewBox="0 0 10 10"><defs><clipPath clipPathUnits="userSpaceOnUse" id="prefix__b"><path d="M201.864 202.786l4.607-4.678h4.878l6.213 5.351-8.244 7.796z" fill="#fff" stroke="red" stroke-width=".265"/></clipPath><clipPath clipPathUnits="userSpaceOnUse" id="prefix__a"><path d="M-.651 286.13l6.564-.05 3.45 3.45.61 8.177-11.343-.317z" fill="#fff" stroke="red" stroke-width=".265"/></clipPath></defs><g transform="translate(0 -287)"><path clip-path="url(#prefix__a)" fill="#fff" stroke="#000" stroke-width=".2" stroke-linecap="square" d="M1.6 287.1h6.8v9.8H1.6z"/><rect width="1.994" height="1.945" x="207.944" y="196.139" ry="0" transform="rotate(45)" clip-path="url(#prefix__b)" fill="#fff" stroke="#000" stroke-width=".3" stroke-linecap="square"/><path fill="none" stroke="#000" stroke-width=".3" stroke-linecap="square" d="M2.181 290.181h5.638v4.638H2.181z"/><circle cx="3.191" cy="291.472" r=".591" fill="navy"/><circle r=".591" cy="291.472" cx="5.041" fill="teal"/><circle cx="6.791" cy="291.472" r=".591" fill="red"/><circle r=".591" cy="293.494" cx="6.791" fill="#d40000"/><circle cx="5.041" cy="293.494" r=".591" fill="#ff0"/><circle cx="3.191" cy="293.494" r=".591" fill="#f0f"/><path d="M6.748 287.023v1.732h1.686" fill="none" stroke="#000" stroke-width=".2"/></g></svg>